<svg width="464" height="746" viewBox="0 0 464 746" fill="none" xmlns="http://www.w3.org/2000/svg">
<path d="M401.458 372.949V183.599C401.458 68.6141 326.194 0 200.195 0C74.1952 0 0 68.6141 0 183.599V373H62.5418V562.401C62.5418 677.386 137.399 746 262.737 746C388.075 746 464 677.386 464 562.401V372.949H401.458ZM262.838 629.285C212.255 629.285 187.676 606.43 187.676 559.398V373H125.134V186.704C125.134 138.297 149.001 115.748 200.297 115.748C251.592 115.748 276.426 138.297 276.426 186.704V372.949H338.916V384.911H338.967V559.398C338.967 606.43 314.032 629.285 262.838 629.285Z" fill="#212023"></path>
</svg>