<svg width="1968" height="502" viewBox="0 0 1968 502" fill="none" xmlns="http://www.w3.org/2000/svg">
<g clip-path="url(#clip0_1597_1939)">
<path d="M186.058 376.199C186.058 408.759 169.987 423.926 135.449 423.926C100.91 423.926 84.8396 408.759 84.8396 376.199V6.84961H0V378.288C0 455.664 50.6433 501.85 135.483 501.85C220.322 501.85 271 455.698 271 378.356V6.84961H186.092V376.199H186.058Z" fill="#00BB77"></path>
<path d="M542.16 219.372C542.16 255.112 542.81 284.245 543.735 307.558C536.1 286.915 526.583 261.822 514.977 232.21L426.034 6.84966H339.625V494.815H423.741V279.486C423.741 245.287 422.885 216.394 421.687 192.772C429.8 214.271 439.592 239.707 450.958 268.086L539.935 494.747H625.625V6.81543H542.194V219.372H542.16Z" fill="#00BB77"></path>
<path d="M782.589 6.91797H697.852V494.918H915.852V418.493H782.589V6.91797Z" fill="#00BB77"></path>
<path d="M1426.68 0C1342.38 0 1292.04 46.1719 1292.04 123.548V378.452C1292.04 455.828 1342.38 502 1426.68 502C1510.98 502 1562.04 455.828 1562.04 378.452V327.417H1477.95V376.363C1477.95 408.046 1461.18 423.46 1426.75 423.46C1392.32 423.46 1376.2 408.492 1376.2 376.363V125.637C1376.2 93.0632 1392.25 77.8895 1426.75 77.8895C1461.25 77.8895 1477.95 93.0632 1477.95 125.637V175.988H1562.04V123.548C1562.04 46.1719 1511.45 0 1426.68 0Z" fill="#00BB77"></path>
<path d="M1795.51 243.626L1902.99 6.84961H1810.68L1706.17 244.927L1814.1 494.85H1909.17L1795.51 243.626Z" fill="#00BB77"></path>
<path d="M1944.29 5.30859C1931.33 5.30859 1920.79 15.8478 1920.79 28.8086C1920.79 41.7694 1931.33 52.3086 1944.29 52.3086C1957.25 52.3086 1967.79 41.7694 1967.79 28.8086C1967.79 15.8478 1957.25 5.30859 1944.29 5.30859ZM1944.29 47.0219C1934.27 47.0219 1926.08 38.8703 1926.08 28.8086C1926.08 18.7469 1934.23 10.5952 1944.29 10.5952C1954.35 10.5952 1962.51 18.7469 1962.51 28.8086C1962.51 38.8703 1954.35 47.0219 1944.29 47.0219Z" fill="#00BB77"></path>
<path d="M1947.94 34.6749C1947.19 35.0842 1946.31 35.2889 1945.28 35.2889C1944.4 35.2889 1943.61 35.1183 1942.86 34.8114C1942.11 34.5044 1941.5 34.061 1940.95 33.4812C1940.41 32.9014 1940 32.2192 1939.72 31.4347C1939.42 30.6503 1939.28 29.7635 1939.28 28.8085C1939.28 27.8535 1939.42 27.0008 1939.72 26.2163C1940.03 25.4318 1940.44 24.7497 1940.99 24.1699C1941.53 23.59 1942.18 23.1466 1942.93 22.8056C1943.68 22.4645 1944.5 22.3281 1945.39 22.3281C1946.2 22.3281 1946.99 22.4986 1947.77 22.8056C1948.56 23.1125 1949.17 23.6241 1949.65 24.2722L1953.13 20.7932C1952.24 19.77 1951.05 18.9855 1949.61 18.4739C1948.18 17.9623 1946.68 17.6895 1945.18 17.6895C1943.58 17.6895 1942.04 17.9623 1940.64 18.4739C1939.25 18.9855 1938.02 19.7359 1937 20.6909C1935.97 21.6459 1935.15 22.8397 1934.54 24.204C1933.96 25.5683 1933.65 27.1372 1933.65 28.8085C1933.65 30.4797 1933.93 31.9805 1934.51 33.3789C1935.08 34.7432 1935.87 35.9369 1936.89 36.926C1937.92 37.9151 1939.11 38.6655 1940.51 39.2112C1941.91 39.7569 1943.41 40.0298 1945.04 40.0298C1946.85 40.0298 1948.42 39.7228 1949.82 39.0748C1951.18 38.4609 1952.34 37.6082 1953.3 36.5167L1949.72 33.1742C1949.24 33.8223 1948.66 34.3339 1947.88 34.7432L1947.94 34.6749Z" fill="#00BB77"></path>
<path d="M1703.51 6.84961H1618.51V494.85H1703.51V6.84961Z" fill="#00BB77"></path>
<path d="M1198.18 250.966V123.548C1198.18 46.1719 1147.57 0 1062.84 0C978.12 0 928.23 46.1719 928.23 123.548V251H970.284V378.452C970.284 455.828 1020.62 502 1104.9 502C1189.18 502 1240.23 455.828 1240.23 378.452V250.966H1198.18ZM1104.97 423.46C1070.95 423.46 1054.43 408.081 1054.43 376.431V251H1012.37V125.637C1012.37 93.0632 1028.42 77.8895 1062.91 77.8895C1097.4 77.8895 1114.1 93.0632 1114.1 125.637V250.966H1156.12V259.015H1156.16V376.431C1156.16 408.081 1139.39 423.46 1104.97 423.46Z" fill="#00BB77"></path>
</g>
<defs>
<clipPath id="clip0_1597_1939">
<rect width="1968" height="502" fill="white"></rect>
</clipPath>
</defs>
</svg>